<svg xmlns="http://www.w3.org/2000/svg" xmlns:xlink="http://www.w3.org/1999/xlink" viewBox="0 0 768 984"><defs><style>.cls-1{fill:none;}.cls-2{clip-path:url(#clip-path);}.cls-3{opacity:0.67;}.cls-4{fill:#fff;}.cls-5{opacity:0.3;}</style><clipPath id="clip-path"><rect class="cls-1" y="2" width="768" height="984"/></clipPath></defs><title>Монтажная область 1</title><g id="Слой_2" data-name="Слой 2"><g class="cls-2"><rect class="cls-1" y="2" width="768" height="984"/></g></g><g id="Слой_1" data-name="Слой 1"><g class="cls-3"><g id="triangle36"><path class="cls-4" d="M363,256.22a1,1,0,0,1-.51-.13l-50.41-27.28a1,1,0,0,1-.55-1,1.06,1.06,0,0,1,.65-.92l63.29-26.6a1.05,1.05,0,0,1,1.43,1.22L364,255.41a1,1,0,0,1-.59.72A1.06,1.06,0,0,1,363,256.22ZM315,228l47.26,25.57,12.09-50.52Z"/></g><g id="triangle36-2" data-name="triangle36"><path class="cls-4" d="M312.58,228.94a1.05,1.05,0,0,1-.79-1.76l76-84.26a1,1,0,0,1,1.26-.24,1.06,1.06,0,0,1,.55,1.17l-12.74,57.66a1,1,0,0,1-.62.75L313,228.86A1.1,1.1,0,0,1,312.58,228.94Zm74.13-81.65-70.19,77.79L375,200.53Z"/></g><g id="triangle36-3" data-name="triangle36"><path class="cls-4" d="M375.87,202.34a1,1,0,0,1-.41-.08,1.05,1.05,0,0,1-.62-1.2l12.73-57.67a1,1,0,0,1,.29-.52L455.15,76.2a1.06,1.06,0,0,1,1.63,1.33l-80,124.33A1.06,1.06,0,0,1,375.87,202.34Zm13.69-58.19-11.4,51.62L449.79,84.48Z"/></g><g id="triangle36-4" data-name="triangle36"><path class="cls-4" d="M375.87,202.34a1.06,1.06,0,0,1-.82-.38,1.05,1.05,0,0,1-.07-1.24L455,76.38a1.09,1.09,0,0,1,1-.47L623.76,99.85a1.05,1.05,0,0,1,.9.91,1.06,1.06,0,0,1-.65,1.11L376.26,202.26A1,1,0,0,1,375.87,202.34ZM456.41,78.09l-77.86,121,241-97.68Z"/></g><g id="triangle36-5" data-name="triangle36"><path class="cls-4" d="M623.62,102l-.16,0L455.74,78a1,1,0,0,1-.73-.47,1,1,0,0,1-.13-.86l16.5-57.89a1.05,1.05,0,0,1,1.52-.64L624,99.87a1.05,1.05,0,0,1-.3,2.07ZM457.23,76.08,617.93,99,473.05,20.62Z"/></g><g id="triangle36-6" data-name="triangle36"><path class="cls-4" d="M236.34,353a1,1,0,0,1-.71-.27,1,1,0,0,1-.19-1.33l76.24-124.11a1.05,1.05,0,0,1,1.4-.37l50.4,27.28a1.07,1.07,0,0,1,.55.84,1.06,1.06,0,0,1-.41.92L237,352.83A1,1,0,0,1,236.34,353ZM313,229.29,240.2,347.71,361,255.32Z"/></g><g id="triangle36-7" data-name="triangle36"><path class="cls-4" d="M317.18,473.28a1,1,0,0,1-.88-.46L235.46,352.58a1.06,1.06,0,0,1,.23-1.43l126.65-96.82a1.06,1.06,0,0,1,1.2-.06,1.07,1.07,0,0,1,.47,1.11l-45.8,217.07a1.06,1.06,0,0,1-.84.81A.58.58,0,0,1,317.18,473.28Zm-79.42-121,78.9,117.34,44.7-211.84Z"/></g><g id="triangle36-8" data-name="triangle36"><path class="cls-4" d="M317.18,473.28a.94.94,0,0,1-.62-.2,1.06,1.06,0,0,1-.42-1.07L362,255a1,1,0,0,1,1.05-.84l314.8,7.42a1,1,0,0,1,.5,2L317.7,473.14A1.07,1.07,0,0,1,317.18,473.28Zm46.65-217L318.7,470.13,674,263.55Z"/></g><g id="triangle36-9" data-name="triangle36"><path class="cls-4" d="M677.84,263.64h-.09L363,256.22a1.07,1.07,0,0,1-.81-.41,1.09,1.09,0,0,1-.19-.89L374.84,201a1.06,1.06,0,0,1,1.23-.79l301.81,61.28a1.06,1.06,0,0,1,0,2.11Zm-313.53-9.5,301.6,7.11L376.65,202.52Z"/></g><g id="triangle36-10" data-name="triangle36"><path class="cls-4" d="M677.78,263.64l-.21,0L375.66,202.32a1.06,1.06,0,0,1-.19-2L623.22,99.91a1.08,1.08,0,0,1,.83,0,1.07,1.07,0,0,1,.56.62L678.68,262a1.06,1.06,0,0,1,.2.61,1,1,0,0,1-1.07,1.07ZM379.5,201l296.69,60.23L623,102.29Z"/></g><g id="triangle36-11" data-name="triangle36"><path class="cls-4" d="M677.78,263.64a1.06,1.06,0,0,1-1-1.44L745.22,87.37a1.06,1.06,0,0,1,2,.13L788.4,255.66a1.06,1.06,0,0,1-.18.88,1,1,0,0,1-.78.42l-109.6,6.67ZM746,91.24,679.36,261.43l106.69-6.49Z"/></g><g id="triangle36-12" data-name="triangle36"><path class="cls-4" d="M677.78,263.64h0a1.07,1.07,0,0,1-1-.72L622.61,101.23a1.07,1.07,0,0,1,.89-1.39L746.09,86.7a1,1,0,0,1,.95.41,1.06,1.06,0,0,1,.14,1L678.76,263A1.07,1.07,0,0,1,677.78,263.64ZM625,101.8l52.82,157.69L744.59,89Z"/></g><g id="triangle36-13" data-name="triangle36"><path class="cls-4" d="M317.18,473.28a1.05,1.05,0,0,1-.54-2l360.6-209.65a1.06,1.06,0,0,1,1.2.1l174.63,143a1.05,1.05,0,0,1-.53,1.86L317.3,473.27ZM677.67,263.86,322.17,470.54l527.67-65.72Z"/></g><g id="triangle36-14" data-name="triangle36"><path class="cls-4" d="M852.42,406.62a1.07,1.07,0,0,1-.68-.24l-174.63-143a1.06,1.06,0,0,1-.34-1.14,1,1,0,0,1,.94-.73l109.6-6.67a1,1,0,0,1,1,.63l64.91,149.38a1,1,0,0,1,.26.68,1,1,0,0,1-1.07,1.07ZM680.52,263.47,849.7,402l-63-145Z"/></g><g id="triangle36-15" data-name="triangle36"><path class="cls-4" d="M312.58,228.94a1.1,1.1,0,0,1-.57-.16,1.06,1.06,0,0,1-.41-1.29L363,99.22a1.06,1.06,0,0,1,.91-.66,1,1,0,0,1,1,.54l24.59,44a1.06,1.06,0,0,1-.14,1.22l-76,84.26A1,1,0,0,1,312.58,228.94Zm51.58-126.89L315.75,222.79l71.56-79.31Z"/></g><g id="triangle36-16" data-name="triangle36"><path class="cls-4" d="M388.61,144.68l-.16,0a1.05,1.05,0,0,1-.77-.52l-24.59-44a1,1,0,0,1,.67-1.54l91.88-22.66a1.06,1.06,0,0,1,1.17.51,1,1,0,0,1-.18,1.26l-67.29,66.67A1.12,1.12,0,0,1,388.61,144.68Zm-23-44.38,23.24,41.6,63.6-63Z"/></g><g id="triangle36-17" data-name="triangle36"><path class="cls-4" d="M364,100.67a1.05,1.05,0,0,1-1-.61,1,1,0,0,1,.32-1.29L471.77,18.22a1,1,0,0,1,1.22,0,1.05,1.05,0,0,1,.42,1.16L456.9,77.24a1,1,0,0,1-.76.74l-91.88,22.65A1,1,0,0,1,364,100.67ZM470.53,21.76,368.84,97.34,455,76.08Z"/></g><g id="triangle36-18" data-name="triangle36"><path class="cls-4" d="M623.62,102a1.17,1.17,0,0,1-.51-.13L471.89,20a1,1,0,0,1-.55-.94,1.08,1.08,0,0,1,.58-.93L616.61-55.14a1,1,0,0,1,1,0,1.06,1.06,0,0,1,.52.86l6.53,155.1a1.06,1.06,0,0,1-.5.93A1.11,1.11,0,0,1,623.62,102ZM474.67,19.1l147.81,80L616.1-52.52Z"/></g><g id="triangle36-19" data-name="triangle36"><path class="cls-4" d="M472.41,20.12a1.1,1.1,0,0,1-.65-.21,1.07,1.07,0,0,1-.4-1l17.05-90.16a1,1,0,0,1,1.17-.85L617.22-55.25a1.06,1.06,0,0,1,.9.87,1.05,1.05,0,0,1-.56,1.12L472.87,20A1.07,1.07,0,0,1,472.41,20.12Zm17.88-90L473.83,17.16,613.57-53.6Z"/></g><g id="triangle36-20" data-name="triangle36"><path class="cls-4" d="M623.62,102a1.08,1.08,0,0,1-.7-.26,1,1,0,0,1-.36-.76L616-54.16a1.06,1.06,0,0,1,.65-1,1.06,1.06,0,0,1,1.18.27L747,87a1.06,1.06,0,0,1,.21,1.09,1,1,0,0,1-.88.67L623.72,101.94ZM618.26-51.34l6.36,151.06L744,86.92Z"/></g><g id="triangle36-21" data-name="triangle36"><path class="cls-4" d="M746.21,88.8a1,1,0,0,1-.79-.34L616.3-53.49a1.08,1.08,0,0,1-.27-.78,1.05,1.05,0,0,1,.38-.74L819.55-224.75a1.05,1.05,0,0,1,1.24-.09,1.07,1.07,0,0,1,.47,1.14L747.23,88a1.06,1.06,0,0,1-.77.77A1,1,0,0,1,746.21,88.8ZM618.6-54.1l127,139.67L818.47-221.1Z"/></g><g id="triangle36-22" data-name="triangle36"><path class="cls-4" d="M853.65,706.15a.84.84,0,0,1-.43-.09L316.75,473.19a1,1,0,0,1-.62-1.11,1.06,1.06,0,0,1,.91-.9l535.24-66.66a1,1,0,0,1,.82.25,1,1,0,0,1,.36.79L854.7,705.1a1.05,1.05,0,0,1-1.05,1ZM321.13,472.8,852.58,703.49l-1.22-296.73Z"/></g><g id="triangle36-23" data-name="triangle36"><path class="cls-4" d="M317.18,473.28l-.24,0-32.52-7.51a1,1,0,0,1-.74-.61L235.36,352.41a1.07,1.07,0,0,1,.47-1.35,1.06,1.06,0,0,1,1.38.34l80.84,120.24a1.05,1.05,0,0,1-.87,1.64Zm-31.77-9.46,29.4,6.78L241.73,361.91Z"/></g><g id="triangle36-24" data-name="triangle36"><path class="cls-4" d="M746.21,88.8a1,1,0,0,1-.82-.37,1.06,1.06,0,0,1-.21-.92l74-311.7A1.06,1.06,0,0,1,820-225a1,1,0,0,1,1.05.4l224.7,297.33a1.07,1.07,0,0,1,.11,1.09,1.06,1.06,0,0,1-.9.6L746.25,88.8Zm74.53-310.32L747.55,86.63l295.33-14.2Z"/></g><g id="triangle36-25" data-name="triangle36"><path class="cls-4" d="M787.39,257a1.13,1.13,0,0,1-.48-.11,1.07,1.07,0,0,1-.56-.7L745.18,88a1,1,0,0,1,.34-1,1.06,1.06,0,0,1,1.09-.17l214.13,91.28a1.06,1.06,0,0,1,0,1.94l-173,76.88A1,1,0,0,1,787.39,257ZM747.73,89.55,788.1,254.44l169.59-75.38Z"/></g><g id="triangle36-26" data-name="triangle36"><path class="cls-4" d="M960.34,180.09a1,1,0,0,1-.42-.09L745.79,88.72a1.05,1.05,0,0,1,.36-2l298.73-14.36a1,1,0,0,1,1,.57,1.05,1.05,0,0,1-.11,1.14l-84.6,105.64A1,1,0,0,1,960.34,180.09ZM750.84,88.58,960,177.75l82.63-103.2Z"/></g></g><g class="cls-3"><g id="triangle36-27" data-name="triangle36" class="cls-5"><path class="cls-4" d="M815.5,977.2a1,1,0,0,1-.79-.34L752.19,907.8a1.05,1.05,0,0,1,.68-1.75l74.76-7.74a1.06,1.06,0,0,1,.87.33,1,1,0,0,1,.28.89l-12.25,76.79a1.06,1.06,0,0,1-.74.84A1,1,0,0,1,815.5,977.2Zm-60.35-69.27,59.64,65.88,11.69-73.26Z"/></g><g id="triangle36-28" data-name="triangle36" class="cls-5"><path class="cls-4" d="M815.5,977.2a.9.9,0,0,1-.42-.08L673,917.7a1.06,1.06,0,0,1-.64-1.11,1.07,1.07,0,0,1,.92-.91l79.55-9.63a1,1,0,0,1,.91.34l62.51,69.05a1.07,1.07,0,0,1,.08,1.32A1,1,0,0,1,815.5,977.2Zm-138-59.9,134,56.05-59-65.14Z"/></g><g id="triangle36-29" data-name="triangle36" class="cls-5"><path class="cls-4" d="M673.44,917.79a1,1,0,0,1-.47-.11L557.36,861.52a1.05,1.05,0,0,1,.71-2l195.15,46.52a1.05,1.05,0,0,1-.12,2.07l-79.55,9.64Zm-106.5-54,106.67,51.82,73.4-8.89Z"/></g><g id="triangle36-30" data-name="triangle36" class="cls-5"><path class="cls-4" d="M753,908.15a1.15,1.15,0,0,1-.26,0L557.58,861.6a1,1,0,0,1-.79-.82L512,635.32a1.06,1.06,0,0,1,1.83-.9l239.94,272a1,1,0,0,1,.12,1.24A1.06,1.06,0,0,1,753,908.15ZM558.73,859.71,750,905.3,514.83,638.74Z"/></g><g id="triangle36-31" data-name="triangle36" class="cls-5"><path class="cls-4" d="M476.3,866.54a1.11,1.11,0,0,1-.79-.35,1.07,1.07,0,0,1-.26-.87L512,635a1,1,0,0,1,1-.89,1.13,1.13,0,0,1,1,.85l44.8,225.46a1.06,1.06,0,0,1-1,1.26l-81.53,4.9Zm36.84-225.45-35.6,223.26,79-4.75Z"/></g><g id="triangle36-32" data-name="triangle36" class="cls-5"><path class="cls-4" d="M827.74,900.41a1,1,0,0,1-1-.72L694.65,493.39a1.06,1.06,0,0,1,1.69-1.13l430.55,367.31a1,1,0,0,1-.55,1.84l-298.47,39ZM697.81,496.29,828.47,898.2l295.25-38.57Z"/></g><g id="triangle36-33" data-name="triangle36" class="cls-5"><path class="cls-4" d="M753,908.15a1.06,1.06,0,0,1-1.05-.91l-57.32-414a1.06,1.06,0,0,1,2-.47L828.74,899a1.05,1.05,0,0,1-.12.9,1.07,1.07,0,0,1-.78.48l-74.76,7.73ZM698.33,504.7l55.55,401.24,72.45-7.49Z"/></g><g id="triangle36-34" data-name="triangle36" class="cls-5"><path class="cls-4" d="M753,908.15a1.07,1.07,0,0,1-.81-.36l-239.94-272a1.06,1.06,0,0,1,.14-1.53L695,492.23a1.08,1.08,0,0,1,1-.15,1.07,1.07,0,0,1,.65.84L754,906.63a1.14,1.14,0,0,1,.1.45,1,1,0,0,1-1.07,1.07ZM514.56,635.26,751.45,903.77,694.86,495Z"/></g><g id="triangle36-35" data-name="triangle36" class="cls-5"><path class="cls-4" d="M695.67,494.12h0l-254.58-9a1.05,1.05,0,0,1-.54-1.93L637.25,354.88a1.05,1.05,0,0,1,.88-.13,1.14,1.14,0,0,1,.67.6l57.83,137.3a1,1,0,0,1-.11,1A1.07,1.07,0,0,1,695.67,494.12Zm-251.23-11L694,492l-56.7-134.62Z"/></g><g id="triangle36-36" data-name="triangle36" class="cls-5"><path class="cls-4" d="M513,636.17a1.07,1.07,0,0,1-.25,0,1.08,1.08,0,0,1-.71-.57l-72-151a1.05,1.05,0,0,1,.07-1,1,1,0,0,1,.92-.47l254.57,9a1,1,0,0,1,.61,1.88L513.68,636A1.15,1.15,0,0,1,513,636.17Zm-70.26-151,70.64,148.27L692.71,494Z"/></g><g id="triangle36-37" data-name="triangle36" class="cls-5"><path class="cls-4" d="M1126.27,861.42h0a1.07,1.07,0,0,1-.7-.25L695,493.86a1.06,1.06,0,0,1-.31-1.16L799.15,204.85a1.06,1.06,0,0,1,.93-.69,1.05,1.05,0,0,1,1,.58L1127,859.64a1,1,0,0,1,.29.72A1,1,0,0,1,1126.27,861.42ZM696.89,492.73,1123,856.21,800.29,207.88Z"/></g><g id="triangle36-38" data-name="triangle36" class="cls-5"><path class="cls-4" d="M695.67,494.12a1.07,1.07,0,0,1-1-.65l-57.83-137.3a1,1,0,0,1,.26-1.18L799.43,204.44a1.07,1.07,0,0,1,1.3-.11,1.05,1.05,0,0,1,.4,1.24L696.64,493.42a1,1,0,0,1-1,.7ZM639.08,356l56.5,134.14L797.67,209Z"/></g><g id="triangle36-39" data-name="triangle36" class="cls-5"><path class="cls-4" d="M637.84,356.82a1.11,1.11,0,0,1-.67-.23,1.05,1.05,0,0,1-.26-1.35L771.49,119a1.06,1.06,0,0,1,1.92.2l27.74,85.71a1.05,1.05,0,0,1-.29,1.09L638.54,356.53A1.07,1.07,0,0,1,637.84,356.82ZM772.14,122.1l-130,228.23L798.93,204.9Z"/></g><g id="triangle36-40" data-name="triangle36" class="cls-5"><path class="cls-4" d="M815.5,977.2h-.06L628.1,969.05a1.07,1.07,0,0,1-.92-.64,1,1,0,0,1,.18-1.11L672.64,916a1,1,0,0,1,1.19-.27l142.06,59.42a1,1,0,0,1-.39,2ZM630.4,967l179.23,7.8L673.72,918Z"/></g><g id="triangle36-41" data-name="triangle36" class="cls-5"><path class="cls-4" d="M628.16,969.05h-.09a1.07,1.07,0,0,1-.8-.48L556.94,861.15a1.05,1.05,0,0,1,1.34-1.52l115.61,56.15a1.06,1.06,0,0,1,.33,1.65l-45.28,51.26A1,1,0,0,1,628.16,969.05ZM560.79,863.19l67.49,103.07,43.44-49.19Z"/></g><g id="triangle36-42" data-name="triangle36" class="cls-5"><path class="cls-4" d="M628.16,969.05a1.08,1.08,0,0,1-.6-.18L475.7,866.36a1.06,1.06,0,0,1,.53-1.93l81.53-4.91a1.09,1.09,0,0,1,.94.48L629,967.42a1,1,0,0,1-.14,1.33A1,1,0,0,1,628.16,969.05Zm-148.7-102.7L624.4,964.19,557.28,861.67Z"/></g><g id="triangle36-43" data-name="triangle36" class="cls-5"><path class="cls-4" d="M476.3,866.54a1,1,0,0,1-.73-.3L316.7,714a1,1,0,0,1-.3-1,1.06,1.06,0,0,1,.64-.78l195.6-78.11a1.08,1.08,0,0,1,1.05.16,1,1,0,0,1,.38,1L477.34,865.65a1.06,1.06,0,0,1-.71.83A1,1,0,0,1,476.3,866.54Zm-157-152.95L475.57,863.33,511.7,636.78Z"/></g><g id="triangle36-44" data-name="triangle36" class="cls-5"><path class="cls-4" d="M353.21,885.27a1.07,1.07,0,0,1-1-.84l-35.77-171a1.05,1.05,0,0,1,1.76-1L477,864.72a1,1,0,0,1-.57,1.8L353.37,885.26Zm-34-168.93L354,883l120-18.26Z"/></g><g id="triangle36-45" data-name="triangle36" class="cls-5"><path class="cls-4" d="M317.44,714.28a1.06,1.06,0,0,1-.94-1.56L440.15,483.6a1.11,1.11,0,0,1,1-.56,1.08,1.08,0,0,1,.93.61l72,151a1,1,0,0,1,0,.84,1.07,1.07,0,0,1-.59.59L317.82,714.2A1.23,1.23,0,0,1,317.44,714.28ZM441,486.43,319.74,711.17l191.85-76.62Z"/></g><g id="triangle36-46" data-name="triangle36" class="cls-5"><path class="cls-4" d="M321.21,895.28a1.11,1.11,0,0,1-.63-.19,1.08,1.08,0,0,1-.43-.84l-3.77-181a1.05,1.05,0,0,1,2.08-.23l35.78,171a1.05,1.05,0,0,1-.72,1.22l-32,10A1.15,1.15,0,0,1,321.21,895.28Zm-2.49-170.75,3.5,168.27L352,883.49Z"/></g><g id="triangle36-47" data-name="triangle36" class="cls-5"><path class="cls-4" d="M321.21,895.28a1.08,1.08,0,0,1-.75-.3L216.15,792.84a1,1,0,0,1-.32-.81,1.07,1.07,0,0,1,.4-.77l100.55-78.87a1.07,1.07,0,0,1,1.1-.12,1.05,1.05,0,0,1,.6.93l3.77,180.68a.93.93,0,0,1,.06.34,1,1,0,0,1-1.07,1.06ZM218.48,792.18l101.61,99.49-3.67-176.32Z"/></g><g id="triangle36-48" data-name="triangle36" class="cls-5"><path class="cls-4" d="M317.44,714.28a1.08,1.08,0,0,1-.55-.15L8.23,530.43a1.08,1.08,0,0,1-.49-1.14,1.06,1.06,0,0,1,.92-.82L441,483.05a1.05,1.05,0,0,1,1,1.55L318.36,713.72a1.09,1.09,0,0,1-.65.52A1.26,1.26,0,0,1,317.44,714.28ZM12,530.24,317,711.75,439.2,485.35Z"/></g><g id="triangle36-49" data-name="triangle36" class="cls-5"><path class="cls-4" d="M216.9,793.14a1,1,0,0,1-.84-.39L8,530.18a1,1,0,0,1,0-1.35,1.06,1.06,0,0,1,1.33-.22L318,712.32a1,1,0,0,1,.51.83,1.06,1.06,0,0,1-.4.9L217.54,792.92A1.06,1.06,0,0,1,216.9,793.14ZM13.16,533.36l203.9,257.25,98.51-77.27Z"/></g><g id="triangle36-50" data-name="triangle36" class="cls-5"><path class="cls-4" d="M8.78,530.57a.94.94,0,0,1-.4-.07,1,1,0,0,1-.64-1.18L93.37,77.57a1.05,1.05,0,0,1,1.2-.85L288.5,107.13a1.05,1.05,0,0,1,.72,1.62L9.65,530.1A1,1,0,0,1,8.78,530.57ZM95.25,79,10.78,524.59,286.55,109Z"/></g><g id="triangle36-51" data-name="triangle36" class="cls-5"><path class="cls-4" d="M8.78,530.57a1,1,0,0,1-.91-.5,1.07,1.07,0,0,1,0-1.13L287.46,107.59a1.07,1.07,0,0,1,1-.47,1,1,0,0,1,.87.65L442.05,483.7a1,1,0,0,1-.07.94,1.08,1.08,0,0,1-.79.51L8.88,530.57ZM288.11,110.42,10.89,528.24l428.68-45Z"/></g><g id="triangle36-52" data-name="triangle36" class="cls-5"><path class="cls-4" d="M288.35,109.22a1.05,1.05,0,0,1-.66-.22L96.22-41.3a1.06,1.06,0,0,1-.32-1.23,1.06,1.06,0,0,1,1.1-.65L358.14-12a1.06,1.06,0,0,1,.82.58,1,1,0,0,1,0,1L289.25,108.7a1.06,1.06,0,0,1-.72.5ZM100.48-40.64,288,106.59,356.29-10.06Z"/></g><g id="triangle36-53" data-name="triangle36" class="cls-5"><path class="cls-4" d="M288.35,109.22h-.17L94.24,78.8a1,1,0,0,1-.89-1.06L95.81-42.15a1.06,1.06,0,0,1,.61-.93,1,1,0,0,1,1.1.12L288.81,107.2a1,1,0,0,1,.63,1,1,1,0,0,1-1.06,1.06ZM95.48,76.87l189,29.63L97.88-40Z"/></g><g id="triangle36-54" data-name="triangle36" class="cls-5"><path class="cls-4" d="M461.63,170a1.13,1.13,0,0,1-.36-.06L288,109.16a1,1,0,0,1-.56-1.52L357.11-11.45A1.11,1.11,0,0,1,358-12a1,1,0,0,1,.91.53L462.54,168.41a1.07,1.07,0,0,1-.91,1.59ZM289.89,107.6,459.29,167,358-8.82Z"/></g><g id="triangle36-55" data-name="triangle36" class="cls-5"><path class="cls-4" d="M637.84,356.82a1,1,0,0,1-.78-.34L460.85,169.66a1.08,1.08,0,0,1-.23-1.06,1.06,1.06,0,0,1,.84-.7l310.78-49.44a1.06,1.06,0,0,1,1.08,1.57L638.74,356.28a1.07,1.07,0,0,1-.79.53ZM463.76,169.67,637.61,354,770.4,120.89Z"/></g><g id="triangle36-56" data-name="triangle36" class="cls-5"><path class="cls-4" d="M441.09,485.15A1,1,0,0,1,440,484l20.55-315.16a1.06,1.06,0,0,1,1.82-.65L638.59,355a1,1,0,0,1,.28.85,1.05,1.05,0,0,1-.47.75L441.65,485A1,1,0,0,1,441.09,485.15Zm21.43-313.73L442.27,482.07l193.92-126.5Z"/></g><g id="triangle36-57" data-name="triangle36" class="cls-5"><path class="cls-4" d="M441.09,485.15a1,1,0,0,1-1-.66L287.36,108.56a1.06,1.06,0,0,1,1.33-1.39L462,168a1,1,0,0,1,.7,1.06L442.13,484.17a1.05,1.05,0,0,1-.88,1ZM290.19,109.94l150.13,369.5,20.2-309.77Z"/></g></g></g></svg>