<svg id="Слой_1" data-name="Слой 1" xmlns="http://www.w3.org/2000/svg" viewBox="0 0 768 984"><defs><style>.cls-1{opacity:0.67;}.cls-2{fill:#fff;}.cls-3{opacity:0.3;}.cls-4{fill:none;}</style></defs><title>Монтажная область 1</title><g class="cls-1"><g id="triangle36"><path class="cls-2" d="M404.73,735.76a1,1,0,0,1,.51.13l50.41,27.28a1.05,1.05,0,0,1-.1,1.9l-63.29,26.6a1.05,1.05,0,0,1-1.43-1.22l12.89-53.88a1,1,0,0,1,.59-.72A1.06,1.06,0,0,1,404.73,735.76Zm48,28.21L405.45,738.4l-12.09,50.52Z"/></g><g id="triangle36-2" data-name="triangle36"><path class="cls-2" d="M455.13,763a1.05,1.05,0,0,1,.8,1.76l-76,84.26a1,1,0,0,1-1.26.24,1.06,1.06,0,0,1-.55-1.17l12.73-57.66a1.06,1.06,0,0,1,.63-.75l63.29-26.6A1,1,0,0,1,455.13,763ZM381,844.69,451.2,766.9l-58.44,24.55Z"/></g><g id="triangle36-3" data-name="triangle36"><path class="cls-2" d="M391.84,789.64a1,1,0,0,1,1,1.28l-12.73,57.67a1,1,0,0,1-.29.52l-67.29,66.67a1.06,1.06,0,0,1-1.63-1.32l80-124.34A1,1,0,0,1,391.84,789.64Zm-13.68,58.19,11.4-51.62L317.92,907.5Z"/></g><g id="triangle36-4" data-name="triangle36"><path class="cls-2" d="M391.84,789.64a1,1,0,0,1,.82.38,1,1,0,0,1,.08,1.24l-80,124.34a1.09,1.09,0,0,1-1,.47L144,892.13a1.05,1.05,0,0,1-.9-.91,1.06,1.06,0,0,1,.65-1.11L391.46,789.72A1,1,0,0,1,391.84,789.64ZM311.31,913.89l77.86-121-241,97.68Z"/></g><g id="triangle36-5" data-name="triangle36"><path class="cls-2" d="M144.09,890a.42.42,0,0,1,.16,0L312,914a1,1,0,0,1,.73.47,1,1,0,0,1,.13.86l-16.5,57.89a1.05,1.05,0,0,1-1.52.64l-151-81.73a1.05,1.05,0,0,1,.3-2.07ZM310.48,915.9,149.79,893l144.88,78.4Z"/></g><g id="triangle36-6" data-name="triangle36"><path class="cls-2" d="M531.37,638.94a1,1,0,0,1,.72.27,1,1,0,0,1,.19,1.33L456,764.65a1.05,1.05,0,0,1-1.4.37l-50.4-27.28a1.07,1.07,0,0,1-.55-.84,1.06,1.06,0,0,1,.41-.92l126.64-96.83A1.06,1.06,0,0,1,531.37,638.94Zm-76.6,123.75,72.75-118.42L406.67,736.66Z"/></g><g id="triangle36-7" data-name="triangle36"><path class="cls-2" d="M450.53,518.7a1,1,0,0,1,.89.46L532.26,639.4a1.06,1.06,0,0,1-.24,1.43L405.38,737.65a1.06,1.06,0,0,1-1.2.06,1.07,1.07,0,0,1-.47-1.11l45.8-217.07a1.06,1.06,0,0,1,.83-.81A.65.65,0,0,1,450.53,518.7Zm79.43,121-78.9-117.34-44.7,211.84Z"/></g><g id="triangle36-8" data-name="triangle36"><path class="cls-2" d="M450.53,518.7a1,1,0,0,1,.63.2,1.06,1.06,0,0,1,.42,1.07L405.77,737a1,1,0,0,1-1,.84l-314.8-7.42a1,1,0,0,1-.5-2L450,518.84A1.06,1.06,0,0,1,450.53,518.7Zm-46.64,217L449,521.85,93.7,728.43Z"/></g><g id="triangle36-9" data-name="triangle36"><path class="cls-2" d="M89.88,728.34H90l314.8,7.42a1.05,1.05,0,0,1,.8.41,1,1,0,0,1,.19.89l-12.88,53.88a1.06,1.06,0,0,1-1.24.79L89.83,730.45a1,1,0,0,1-1-1A1.06,1.06,0,0,1,89.88,728.34Zm313.53,9.5-301.6-7.11,289.25,58.73Z"/></g><g id="triangle36-10" data-name="triangle36"><path class="cls-2" d="M89.93,728.34a.78.78,0,0,1,.22,0l301.91,61.29a1,1,0,0,1,.84.94,1.06,1.06,0,0,1-.65,1.07L144.5,892.07a1.11,1.11,0,0,1-.84,0,1.08,1.08,0,0,1-.55-.62L89,730a1.06,1.06,0,0,1-.2-.61,1,1,0,0,1,1.07-1.07ZM388.21,791,91.53,730.8l53.22,158.89Z"/></g><g id="triangle36-11" data-name="triangle36"><path class="cls-2" d="M89.93,728.34a1.07,1.07,0,0,1,.87.44,1.05,1.05,0,0,1,.13,1L22.5,904.61a1.06,1.06,0,0,1-2-.13L-20.68,736.32a1.05,1.05,0,0,1,.17-.88,1,1,0,0,1,.79-.42l109.6-6.67ZM21.75,900.74,88.36,730.55-18.33,737Z"/></g><g id="triangle36-12" data-name="triangle36"><path class="cls-2" d="M89.93,728.34h0a1.09,1.09,0,0,1,1,.72l54.16,161.7a1,1,0,0,1-.12.9,1.05,1.05,0,0,1-.77.48L21.63,905.28a1,1,0,0,1-.95-.41,1.06,1.06,0,0,1-.14-1L89,729A1.07,1.07,0,0,1,89.93,728.34Zm52.76,161.84L89.87,732.49,23.13,903Z"/></g><g id="triangle36-13" data-name="triangle36"><path class="cls-2" d="M450.53,518.7a1,1,0,0,1,1,.71,1.05,1.05,0,0,1-.46,1.25L90.47,730.31a1,1,0,0,1-1.19-.1l-174.63-143a1,1,0,0,1-.35-1.1,1,1,0,0,1,.88-.76l535.24-66.66ZM90.05,728.12l355.5-206.68L-82.12,587.16Z"/></g><g id="triangle36-14" data-name="triangle36"><path class="cls-2" d="M-84.7,585.36a1.09,1.09,0,0,1,.68.24l174.63,143a1.05,1.05,0,0,1-.6,1.87l-109.6,6.67a1,1,0,0,1-1-.63L-85.54,587.11a1.07,1.07,0,0,1-.25-.68,1,1,0,0,1,1.07-1.07ZM87.2,728.51-82,590l63,145Z"/></g><g id="triangle36-15" data-name="triangle36"><path class="cls-2" d="M455.13,763a1.06,1.06,0,0,1,1,1.45L404.69,892.76a1.06,1.06,0,0,1-.91.66,1,1,0,0,1-1-.54l-24.59-44a1,1,0,0,1,.14-1.22l76-84.26A1,1,0,0,1,455.13,763ZM403.55,889.93,452,769.19,380.41,848.5Z"/></g><g id="triangle36-16" data-name="triangle36"><path class="cls-2" d="M379.11,847.3l.16,0a1.05,1.05,0,0,1,.77.52l24.59,44a1,1,0,0,1,0,.94,1,1,0,0,1-.71.6l-91.88,22.66a1.06,1.06,0,0,1-1.17-.51,1,1,0,0,1,.18-1.26l67.29-66.67A1.1,1.1,0,0,1,379.11,847.3Zm23,44.38-23.23-41.6-63.6,63Z"/></g><g id="triangle36-17" data-name="triangle36"><path class="cls-2" d="M403.7,891.31a1.07,1.07,0,0,1,1,.61,1,1,0,0,1-.32,1.29L296,973.76a1.05,1.05,0,0,1-1.64-1.14l16.51-57.88a1,1,0,0,1,.76-.74l91.88-22.65A1,1,0,0,1,403.7,891.31ZM297.19,970.22l101.69-75.58L312.67,915.9Z"/></g><g id="triangle36-18" data-name="triangle36"><path class="cls-2" d="M144.09,890a1,1,0,0,1,.52.12L295.82,972a1,1,0,0,1,.56.94,1.08,1.08,0,0,1-.58.93l-144.69,73.26a1,1,0,0,1-1,0,1.06,1.06,0,0,1-.52-.86l-6.53-155.09a1.06,1.06,0,0,1,.5-.94A1,1,0,0,1,144.09,890Zm149,82.84-147.81-80,6.38,151.6Z"/></g><g id="triangle36-19" data-name="triangle36"><path class="cls-2" d="M295.31,971.86a1.1,1.1,0,0,1,.65.21,1.07,1.07,0,0,1,.4,1l-17.05,90.16a1,1,0,0,1-1.17.85L150.5,1047.23a1.06,1.06,0,0,1-.34-2L294.85,972A1,1,0,0,1,295.31,971.86Zm-17.88,90,16.46-87.08-139.74,70.76Z"/></g><g id="triangle36-20" data-name="triangle36"><path class="cls-2" d="M144.09,890a1,1,0,0,1,.7.25,1,1,0,0,1,.37.76l6.53,155.09a1,1,0,0,1-1.83.75l-129.12-142a1.06,1.06,0,0,1-.21-1.09,1,1,0,0,1,.87-.67L144,890Zm5.37,153.28L143.1,892.26,23.69,905.06Z"/></g><g id="triangle36-21" data-name="triangle36"><path class="cls-2" d="M21.51,903.18a1,1,0,0,1,.78.34l129.12,142a1.09,1.09,0,0,1,.28.78,1.05,1.05,0,0,1-.38.74L-51.84,1216.73a1,1,0,0,1-1.23.09,1.07,1.07,0,0,1-.47-1.14l74-311.7a1,1,0,0,1,.76-.77A1.15,1.15,0,0,1,21.51,903.18Zm127.6,142.9-127-139.67-72.84,306.67Z"/></g><g id="triangle36-22" data-name="triangle36"><path class="cls-2" d="M-85.94,285.83a.85.85,0,0,1,.44.09L451,518.79a1,1,0,0,1,.62,1.11,1.06,1.06,0,0,1-.91.9L-84.56,587.47a1.07,1.07,0,0,1-.82-.26,1,1,0,0,1-.36-.79L-87,286.89a1.07,1.07,0,0,1,.48-.89A1,1,0,0,1-85.94,285.83ZM446.59,519.18-84.86,288.49l1.22,296.73Z"/></g><g id="triangle36-23" data-name="triangle36"><path class="cls-2" d="M450.53,518.7l.25,0,32.52,7.51a1.06,1.06,0,0,1,.74.61l48.31,112.73a1.05,1.05,0,0,1-1.84,1L449.67,520.34a1.06,1.06,0,0,1,0-1.19A1,1,0,0,1,450.53,518.7Zm31.78,9.46-29.4-6.78L526,630.07Z"/></g><g id="triangle36-24" data-name="triangle36"><path class="cls-2" d="M21.51,903.18a1,1,0,0,1,.82.37,1.06,1.06,0,0,1,.21.92l-74,311.7a1.06,1.06,0,0,1-.81.79,1,1,0,0,1-1.05-.4L-278,919.23a1.07,1.07,0,0,1-.11-1.09,1,1,0,0,1,.9-.6L21.47,903.18ZM-53,1213.5,20.17,905.35l-295.33,14.2Z"/></g><g id="triangle36-25" data-name="triangle36"><path class="cls-2" d="M-19.67,735a1.16,1.16,0,0,1,.48.11,1.07,1.07,0,0,1,.56.7L22.54,904a1.06,1.06,0,0,1-1.44,1.22L-193,813.92a1.08,1.08,0,0,1-.65-1,1.08,1.08,0,0,1,.63-1l173-76.88A1,1,0,0,1-19.67,735ZM20,902.43-20.38,737.54-190,812.92Z"/></g><g id="triangle36-26" data-name="triangle36"><path class="cls-2" d="M-192.62,811.89a1.06,1.06,0,0,1,.42.09L21.93,903.26a1.05,1.05,0,0,1-.36,2l-298.73,14.36a1,1,0,0,1-1-.57,1.07,1.07,0,0,1,.12-1.14l84.59-105.64A1.12,1.12,0,0,1-192.62,811.89ZM16.88,903.4l-209.17-89.17-82.63,103.2Z"/></g></g><g class="cls-1"><g id="triangle36-27" data-name="triangle36" class="cls-3"><path class="cls-2" d="M-47.78,14.78a1,1,0,0,1,.79.34L15.52,84.18a1,1,0,0,1-.67,1.75l-74.76,7.74a1.06,1.06,0,0,1-.87-.33,1,1,0,0,1-.28-.89l12.25-76.79a1,1,0,0,1,.74-.84A1,1,0,0,1-47.78,14.78ZM12.57,84.05-47.08,18.17-58.76,91.43Z"/></g><g id="triangle36-28" data-name="triangle36" class="cls-3"><path class="cls-2" d="M-47.78,14.78a.9.9,0,0,1,.42.08L94.7,74.28a1.05,1.05,0,0,1-.28,2L14.87,85.93a1,1,0,0,1-.91-.34L-48.55,16.54a1.06,1.06,0,0,1-.08-1.32A1,1,0,0,1-47.78,14.78Zm138,59.9-134-56.05,59,65.14Z"/></g><g id="triangle36-29" data-name="triangle36" class="cls-3"><path class="cls-2" d="M94.28,74.2a1,1,0,0,1,.47.1l115.6,56.16a1,1,0,0,1,.54,1.3,1.06,1.06,0,0,1-1.24.67L14.5,85.91a1,1,0,0,1-.81-1.08,1.06,1.06,0,0,1,.93-1L94.16,74.2Zm106.5,54L94.11,76.33l-73.4,8.89Z"/></g><g id="triangle36-30" data-name="triangle36" class="cls-3"><path class="cls-2" d="M14.73,83.83a1.15,1.15,0,0,1,.26,0l195.15,46.52a1,1,0,0,1,.79.82l44.79,225.46a1,1,0,0,1-.56,1.15,1.07,1.07,0,0,1-1.26-.24L14,85.58a1.05,1.05,0,0,1,.78-1.75ZM209,132.27,17.73,86.68,252.89,353.24Z"/></g><g id="triangle36-31" data-name="triangle36" class="cls-3"><path class="cls-2" d="M291.41,125.44a1.08,1.08,0,0,1,.79.35,1,1,0,0,1,.26.87L255.73,357a1,1,0,0,1-1,.89,1.12,1.12,0,0,1-1.05-.85l-44.8-225.46a1.06,1.06,0,0,1,1-1.26l81.53-4.9ZM254.58,350.89l35.6-223.26-79,4.75Z"/></g><g id="triangle36-32" data-name="triangle36" class="cls-3"><path class="cls-2" d="M-60,91.57a1,1,0,0,1,1,.72L73.07,498.59a1.08,1.08,0,0,1-.42,1.21,1.07,1.07,0,0,1-1.27-.08L-359.17,132.41a1,1,0,0,1-.33-1.1,1,1,0,0,1,.87-.74l298.47-39ZM69.91,495.69-60.75,93.78-356,132.35Z"/></g><g id="triangle36-33" data-name="triangle36" class="cls-3"><path class="cls-2" d="M14.74,83.83a1.06,1.06,0,0,1,1,.91l57.32,414a1.06,1.06,0,0,1-2,.47L-61,93a1,1,0,0,1,.12-.9,1.07,1.07,0,0,1,.77-.48l74.77-7.73ZM69.39,487.28,13.84,86l-72.45,7.49Z"/></g><g id="triangle36-34" data-name="triangle36" class="cls-3"><path class="cls-2" d="M14.73,83.83a1,1,0,0,1,.8.36l240,272a1.06,1.06,0,0,1-.14,1.53L72.71,499.75a1.08,1.08,0,0,1-1,.15,1.07,1.07,0,0,1-.65-.84L13.74,85.35a1.14,1.14,0,0,1-.1-.45,1,1,0,0,1,1.07-1.07ZM253.16,356.72,16.27,88.21,72.86,497Z"/></g><g id="triangle36-35" data-name="triangle36" class="cls-3"><path class="cls-2" d="M72.05,497.86h0l254.58,9a1.05,1.05,0,0,1,.54,1.93L130.47,637.1a1.07,1.07,0,0,1-.89.13,1.06,1.06,0,0,1-.66-.6L71.09,499.33a1,1,0,0,1,.11-1A1.07,1.07,0,0,1,72.05,497.86Zm251.23,11L73.67,500l56.7,134.62Z"/></g><g id="triangle36-36" data-name="triangle36" class="cls-3"><path class="cls-2" d="M254.68,355.81a1.07,1.07,0,0,1,.25,0,1.1,1.1,0,0,1,.71.57l71.95,151a1.05,1.05,0,0,1-.07,1,1,1,0,0,1-.92.47L72,500a1,1,0,0,1-.61-1.88L254,356A1.15,1.15,0,0,1,254.68,355.81Zm70.26,151L254.3,358.51,75,498Z"/></g><g id="triangle36-37" data-name="triangle36" class="cls-3"><path class="cls-2" d="M-358.55,130.56h.05a1,1,0,0,1,.69.25L72.75,498.12a1.08,1.08,0,0,1,.31,1.16L-31.43,787.13a1.06,1.06,0,0,1-.94.69,1,1,0,0,1-1-.58L-359.3,132.34a1,1,0,0,1-.29-.72A1,1,0,0,1-358.55,130.56ZM70.82,499.25-355.24,135.77-32.58,784.1Z"/></g><g id="triangle36-38" data-name="triangle36" class="cls-3"><path class="cls-2" d="M72.05,497.86a1.07,1.07,0,0,1,1,.65l57.83,137.3a1,1,0,0,1-.26,1.18L-31.71,787.54a1.06,1.06,0,0,1-1.3.11,1.05,1.05,0,0,1-.4-1.24L71.07,498.56a1.07,1.07,0,0,1,1-.7ZM128.64,636,72.14,501.81-29.95,783Z"/></g><g id="triangle36-39" data-name="triangle36" class="cls-3"><path class="cls-2" d="M129.88,635.16a1.11,1.11,0,0,1,.67.23,1.05,1.05,0,0,1,.26,1.35L-3.77,873a1.08,1.08,0,0,1-1,.53,1.07,1.07,0,0,1-.89-.73l-27.74-85.71a1.05,1.05,0,0,1,.29-1.09L129.18,635.45A1.07,1.07,0,0,1,129.88,635.16ZM-4.42,869.88l130-228.23L-31.22,787.08Z"/></g><g id="triangle36-40" data-name="triangle36" class="cls-3"><path class="cls-2" d="M-47.78,14.78h.06l187.33,8.15a1.07,1.07,0,0,1,.93.64,1,1,0,0,1-.18,1.11L95.08,76a1,1,0,0,1-1.19.27L-48.18,16.8a1,1,0,0,1-.62-1.2A1,1,0,0,1-47.78,14.78Zm185.1,10.16-179.23-7.8L94,74Z"/></g><g id="triangle36-41" data-name="triangle36" class="cls-3"><path class="cls-2" d="M139.56,22.93h.08a1.07,1.07,0,0,1,.81.48l70.33,107.42a1.05,1.05,0,0,1-1.34,1.52L93.83,76.2a1.06,1.06,0,0,1-.33-1.65l45.28-51.26A1,1,0,0,1,139.56,22.93Zm67.36,105.86L139.44,25.72,96,74.91Z"/></g><g id="triangle36-42" data-name="triangle36" class="cls-3"><path class="cls-2" d="M139.56,22.93a1.11,1.11,0,0,1,.6.18L292,125.62a1.06,1.06,0,0,1-.52,1.93L210,132.46a1.11,1.11,0,0,1-1-.48L138.69,24.56a1,1,0,0,1,.14-1.33A1,1,0,0,1,139.56,22.93Zm148.7,102.7L143.32,27.79l67.12,102.53Z"/></g><g id="triangle36-43" data-name="triangle36" class="cls-3"><path class="cls-2" d="M291.41,125.44a1,1,0,0,1,.74.3L451,278a1,1,0,0,1,.3,1,1.08,1.08,0,0,1-.64.78l-195.6,78.11a1.08,1.08,0,0,1-1.05-.16,1,1,0,0,1-.38-1l36.73-230.37a1,1,0,0,1,.71-.83A.87.87,0,0,1,291.41,125.44Zm157,153L292.15,128.65,256,355.2Z"/></g><g id="triangle36-44" data-name="triangle36" class="cls-3"><path class="cls-2" d="M414.5,106.71a1.05,1.05,0,0,1,1,.84l35.78,171a1.05,1.05,0,0,1-1.76,1L290.69,127.26a1.08,1.08,0,0,1-.27-1.08,1.05,1.05,0,0,1,.85-.72l123.08-18.74Zm34.06,168.93L413.68,109l-120,18.26Z"/></g><g id="triangle36-45" data-name="triangle36" class="cls-3"><path class="cls-2" d="M450.28,277.7a1,1,0,0,1,.79.36,1,1,0,0,1,.14,1.2L327.57,508.38a1.11,1.11,0,0,1-1,.56,1.08,1.08,0,0,1-.92-.61l-71.95-151a1,1,0,0,1,0-.84,1,1,0,0,1,.59-.59l195.6-78.11A1.23,1.23,0,0,1,450.28,277.7ZM326.7,505.55,448,280.81,256.12,357.43Z"/></g><g id="triangle36-46" data-name="triangle36" class="cls-3"><path class="cls-2" d="M446.51,96.7a1,1,0,0,1,1.06,1l3.77,181a1.05,1.05,0,0,1-2.08.23L413.48,108a1.05,1.05,0,0,1,.72-1.22l32-10A1.1,1.1,0,0,1,446.51,96.7ZM449,267.45,445.49,99.18l-29.75,9.31Z"/></g><g id="triangle36-47" data-name="triangle36" class="cls-3"><path class="cls-2" d="M446.51,96.7a1.08,1.08,0,0,1,.75.3L551.57,199.14a1.06,1.06,0,0,1,.32.81,1.08,1.08,0,0,1-.41.77L450.94,279.59a1.06,1.06,0,0,1-1.71-.81L445.47,98.1a.93.93,0,0,1-.06-.34,1,1,0,0,1,1.07-1.06ZM549.24,199.8,447.62,100.31l3.68,176.32Z"/></g><g id="triangle36-48" data-name="triangle36" class="cls-3"><path class="cls-2" d="M450.28,277.7a1.08,1.08,0,0,1,.55.15l308.65,183.7a1.05,1.05,0,0,1-.42,2L326.75,508.93a1,1,0,0,1-1-.46,1.07,1.07,0,0,1-.06-1.09L449.36,278.26a1.09,1.09,0,0,1,.65-.52A1.26,1.26,0,0,1,450.28,277.7Zm305.4,184-305-181.51L328.52,506.63Z"/></g><g id="triangle36-49" data-name="triangle36" class="cls-3"><path class="cls-2" d="M550.82,198.84a1,1,0,0,1,.84.39L759.77,461.8a1.06,1.06,0,0,1-1.36,1.57L449.75,279.66a1,1,0,0,1-.51-.83,1,1,0,0,1,.4-.9l100.54-78.87A1,1,0,0,1,550.82,198.84ZM754.56,458.62,550.66,201.37l-98.51,77.27Z"/></g><g id="triangle36-50" data-name="triangle36" class="cls-3"><path class="cls-2" d="M758.94,461.41a.94.94,0,0,1,.4.07,1.06,1.06,0,0,1,.64,1.18L674.35,914.41a1.06,1.06,0,0,1-1.2.85L479.22,884.85a1.05,1.05,0,0,1-.72-1.62L758.07,461.88A1,1,0,0,1,758.94,461.41ZM672.47,913l84.47-445.63L481.17,883Z"/></g><g id="triangle36-51" data-name="triangle36" class="cls-3"><path class="cls-2" d="M758.94,461.41a1,1,0,0,1,.91.5,1.05,1.05,0,0,1,0,1.13L480.26,884.39a1.06,1.06,0,0,1-1.86-.18L325.67,508.28a1,1,0,0,1,.07-.94,1.08,1.08,0,0,1,.79-.51l432.3-45.42ZM479.61,881.56,756.83,463.74l-428.69,45Z"/></g><g id="triangle36-52" data-name="triangle36" class="cls-3"><path class="cls-2" d="M479.37,882.76a1.05,1.05,0,0,1,.66.22l191.47,150.3a1.06,1.06,0,0,1-.78,1.88l-261.14-31.22a1,1,0,0,1-.82-.58,1,1,0,0,1,0-1l69.68-119.08a1,1,0,0,1,.71-.5Zm187.87,149.86L479.68,885.39,411.42,1002Z"/></g><g id="triangle36-53" data-name="triangle36" class="cls-3"><path class="cls-2" d="M479.37,882.76h.17l193.93,30.41a1,1,0,0,1,.89,1.06l-2.46,119.89a1.05,1.05,0,0,1-1.7.81L478.9,884.78a1.06,1.06,0,0,1-.63-1,1,1,0,0,1,1.07-1.06Zm192.87,32.35-189-29.63L669.84,1032Z"/></g><g id="triangle36-54" data-name="triangle36" class="cls-3"><path class="cls-2" d="M306.09,822a1,1,0,0,1,.35.06l173.29,60.78a1.05,1.05,0,0,1,.64.63,1,1,0,0,1-.08.89l-69.68,119.09a1.11,1.11,0,0,1-.91.52,1,1,0,0,1-.91-.53L305.18,823.57a1.07,1.07,0,0,1,.91-1.59Zm171.73,62.4L308.43,825,409.71,1000.8Z"/></g><g id="triangle36-55" data-name="triangle36" class="cls-3"><path class="cls-2" d="M129.88,635.16a1,1,0,0,1,.78.34l176.2,186.82a1.05,1.05,0,0,1-.6,1.76L-4.52,873.52a1.1,1.1,0,0,1-1-.44A1.12,1.12,0,0,1-5.61,872L129,635.7a1.05,1.05,0,0,1,.79-.53ZM304,822.31,130.11,638-2.69,871.09Z"/></g><g id="triangle36-56" data-name="triangle36" class="cls-3"><path class="cls-2" d="M326.63,506.83a1,1,0,0,1,1.06,1.12L307.15,823.11a1.06,1.06,0,0,1-1.82.65L129.13,636.94a1,1,0,0,1-.28-.85,1,1,0,0,1,.47-.75L326.06,507A1.08,1.08,0,0,1,326.63,506.83ZM305.2,820.56l20.25-310.65L131.53,636.41Z"/></g><g id="triangle36-57" data-name="triangle36" class="cls-3"><path class="cls-2" d="M326.63,506.83a1,1,0,0,1,1,.66L480.36,883.42a1.06,1.06,0,0,1-1.33,1.39L305.75,824a1,1,0,0,1-.7-1.06l20.54-315.16a1.05,1.05,0,0,1,.88-1ZM477.52,882,327.39,512.54,307.2,822.31Z"/></g></g><rect class="cls-4" x="-249.1" y="293.08" width="903.95" height="502.18" transform="translate(747.05 341.3) rotate(90)"/></svg>