<?xml version="1.0" encoding="UTF-8" standalone="no"?>
<svg
   xmlns:dc="http://purl.org/dc/elements/1.1/"
   xmlns:cc="http://creativecommons.org/ns#"
   xmlns:rdf="http://www.w3.org/1999/02/22-rdf-syntax-ns#"
   xmlns:svg="http://www.w3.org/2000/svg"
   xmlns="http://www.w3.org/2000/svg"
   xmlns:sodipodi="http://sodipodi.sourceforge.net/DTD/sodipodi-0.dtd"
   xmlns:inkscape="http://www.inkscape.org/namespaces/inkscape"
   viewBox="0 0 1122.5197 793.7008"
   version="1.1"
   id="svg192"
   sodipodi:docname="multigons.svg"
   width="297mm"
   height="210mm"
   inkscape:version="0.92.5 (2060ec1f9f, 2020-04-08)">
  <metadata
     id="metadata196">
    <rdf:RDF>
      <cc:Work
         rdf:about="">
        <dc:format>image/svg+xml</dc:format>
        <dc:type
           rdf:resource="http://purl.org/dc/dcmitype/StillImage" />
        <dc:title>octagon</dc:title>
      </cc:Work>
    </rdf:RDF>
  </metadata>
  <sodipodi:namedview
     pagecolor="#ffffff"
     bordercolor="#666666"
     borderopacity="1"
     objecttolerance="10"
     gridtolerance="10"
     guidetolerance="10"
     inkscape:pageopacity="0"
     inkscape:pageshadow="2"
     inkscape:window-width="1920"
     inkscape:window-height="1005"
     id="namedview194"
     showgrid="false"
     units="mm"
     inkscape:zoom="0.2398374"
     inkscape:cx="384"
     inkscape:cy="492"
     inkscape:window-x="0"
     inkscape:window-y="46"
     inkscape:window-maximized="1"
     inkscape:current-layer="svg192" />
  <defs
     id="defs5">
    <clipPath
       id="clip-path">
      <rect
         y="2"
         width="768"
         height="984"
         style="fill:none"
         id="rect2"
         x="0" />
    </clipPath>
  </defs>
  <title
     id="title7">octagon</title>
  <g
     id="Слой_1"
     data-name="Слой 1"
     transform="matrix(0.83352944,0,0,0.83352944,539.14767,-27.623973)">
    <g
       style="opacity:0.67000002"
       id="g87">
      <g
         id="triangle36">
        <path
           d="m 363,256.22 a 1,1 0 0 1 -0.51,-0.13 l -50.41,-27.28 a 1,1 0 0 1 -0.55,-1 1.06,1.06 0 0 1 0.65,-0.92 l 63.29,-26.6 a 1.05,1.05 0 0 1 1.43,1.22 l -12.9,53.9 a 1,1 0 0 1 -0.59,0.72 1.06,1.06 0 0 1 -0.41,0.09 z M 315,228 l 47.26,25.57 12.09,-50.52 z"
           style="fill:#1dadb8"
           id="path9"
           inkscape:connector-curvature="0" />
      </g>
      <g
         id="triangle36-2"
         data-name="triangle36">
        <path
           d="m 312.58,228.94 a 1.05,1.05 0 0 1 -0.79,-1.76 l 76,-84.26 a 1,1 0 0 1 1.26,-0.24 1.06,1.06 0 0 1 0.55,1.17 l -12.74,57.66 a 1,1 0 0 1 -0.62,0.75 L 313,228.86 a 1.1,1.1 0 0 1 -0.42,0.08 z m 74.13,-81.65 -70.19,77.79 58.48,-24.55 z"
           style="fill:#1dadb8"
           id="path12"
           inkscape:connector-curvature="0" />
      </g>
      <g
         id="triangle36-3"
         data-name="triangle36">
        <path
           d="m 375.87,202.34 a 1,1 0 0 1 -0.41,-0.08 1.05,1.05 0 0 1 -0.62,-1.2 l 12.73,-57.67 a 1,1 0 0 1 0.29,-0.52 L 455.15,76.2 a 1.06,1.06 0 0 1 1.63,1.33 l -80,124.33 a 1.06,1.06 0 0 1 -0.91,0.48 z m 13.69,-58.19 -11.4,51.62 71.63,-111.29 z"
           style="fill:#1dadb8"
           id="path15"
           inkscape:connector-curvature="0" />
      </g>
      <g
         id="triangle36-4"
         data-name="triangle36">
        <path
           d="m 375.87,202.34 a 1.06,1.06 0 0 1 -0.82,-0.38 1.05,1.05 0 0 1 -0.07,-1.24 L 455,76.38 a 1.09,1.09 0 0 1 1,-0.47 l 167.76,23.94 a 1.05,1.05 0 0 1 0.9,0.91 1.06,1.06 0 0 1 -0.65,1.11 L 376.26,202.26 a 1,1 0 0 1 -0.39,0.08 z m 80.54,-124.25 -77.86,121 241,-97.68 z"
           style="fill:#1dadb8"
           id="path18"
           inkscape:connector-curvature="0" />
      </g>
      <g
         id="triangle36-5"
         data-name="triangle36">
        <path
           d="m 623.62,102 h -0.16 L 455.74,78 a 1,1 0 0 1 -0.73,-0.47 1,1 0 0 1 -0.13,-0.86 l 16.5,-57.89 a 1.05,1.05 0 0 1 1.52,-0.64 L 624,99.87 a 1.05,1.05 0 0 1 -0.3,2.07 z M 457.23,76.08 617.93,99 473.05,20.62 Z"
           style="fill:#1dadb8"
           id="path21"
           inkscape:connector-curvature="0" />
      </g>
      <g
         id="triangle36-6"
         data-name="triangle36">
        <path
           d="m 236.34,353 a 1,1 0 0 1 -0.71,-0.27 1,1 0 0 1 -0.19,-1.33 l 76.24,-124.11 a 1.05,1.05 0 0 1 1.4,-0.37 l 50.4,27.28 a 1.07,1.07 0 0 1 0.55,0.84 1.06,1.06 0 0 1 -0.41,0.92 L 237,352.83 A 1,1 0 0 1 236.34,353 Z M 313,229.29 240.2,347.71 361,255.32 Z"
           style="fill:#1dadb8"
           id="path24"
           inkscape:connector-curvature="0" />
      </g>
      <g
         id="triangle36-7"
         data-name="triangle36">
        <path
           d="m 317.18,473.28 a 1,1 0 0 1 -0.88,-0.46 L 235.46,352.58 a 1.06,1.06 0 0 1 0.23,-1.43 l 126.65,-96.82 a 1.06,1.06 0 0 1 1.2,-0.06 1.07,1.07 0 0 1 0.47,1.11 l -45.8,217.07 a 1.06,1.06 0 0 1 -0.84,0.81 0.58,0.58 0 0 1 -0.19,0.02 z m -79.42,-121 78.9,117.34 44.7,-211.84 z"
           style="fill:#1dadb8"
           id="path27"
           inkscape:connector-curvature="0" />
      </g>
      <g
         id="triangle36-8"
         data-name="triangle36">
        <path
           d="m 317.18,473.28 a 0.94,0.94 0 0 1 -0.62,-0.2 1.06,1.06 0 0 1 -0.42,-1.07 L 362,255 a 1,1 0 0 1 1.05,-0.84 l 314.8,7.42 a 1.0307764,1.0307764 0 0 1 0.5,2 L 317.7,473.14 a 1.07,1.07 0 0 1 -0.52,0.14 z m 46.65,-217 L 318.7,470.13 674,263.55 Z"
           style="fill:#1dadb8"
           id="path30"
           inkscape:connector-curvature="0" />
      </g>
      <g
         id="triangle36-9"
         data-name="triangle36">
        <path
           d="m 677.84,263.64 h -0.09 L 363,256.22 a 1.07,1.07 0 0 1 -0.81,-0.41 1.09,1.09 0 0 1 -0.19,-0.89 L 374.84,201 a 1.06,1.06 0 0 1 1.23,-0.79 l 301.81,61.28 a 1.06,1.06 0 0 1 0,2.11 z m -313.53,-9.5 301.6,7.11 -289.26,-58.73 z"
           style="fill:#1dadb8"
           id="path33"
           inkscape:connector-curvature="0" />
      </g>
      <g
         id="triangle36-10"
         data-name="triangle36">
        <path
           d="m 677.78,263.64 h -0.21 L 375.66,202.32 a 1.06,1.06 0 0 1 -0.19,-2 L 623.22,99.91 a 1.08,1.08 0 0 1 0.83,0 1.07,1.07 0 0 1 0.56,0.62 L 678.68,262 a 1.06,1.06 0 0 1 0.2,0.61 1,1 0 0 1 -1.07,1.07 z M 379.5,201 676.19,261.23 623,102.29 Z"
           style="fill:#1dadb8"
           id="path36"
           inkscape:connector-curvature="0" />
      </g>
      <g
         id="triangle36-11"
         data-name="triangle36">
        <path
           d="m 677.78,263.64 a 1.06,1.06 0 0 1 -1,-1.44 L 745.22,87.37 a 1.06,1.06 0 0 1 2,0.13 l 41.18,168.16 a 1.06,1.06 0 0 1 -0.18,0.88 1,1 0 0 1 -0.78,0.42 l -109.6,6.67 z M 746,91.24 679.36,261.43 786.05,254.94 Z"
           style="fill:#1dadb8"
           id="path39"
           inkscape:connector-curvature="0" />
      </g>
      <g
         id="triangle36-12"
         data-name="triangle36">
        <path
           d="m 677.78,263.64 v 0 a 1.07,1.07 0 0 1 -1,-0.72 L 622.61,101.23 a 1.07,1.07 0 0 1 0.89,-1.39 L 746.09,86.7 a 1,1 0 0 1 0.95,0.41 1.06,1.06 0 0 1 0.14,1 L 678.76,263 a 1.07,1.07 0 0 1 -0.98,0.64 z M 625,101.8 677.82,259.49 744.59,89 Z"
           style="fill:#1dadb8"
           id="path42"
           inkscape:connector-curvature="0" />
      </g>
      <g
         id="triangle36-13"
         data-name="triangle36">
        <path
           d="m 317.18,473.28 a 1.05,1.05 0 0 1 -0.54,-2 l 360.6,-209.65 a 1.06,1.06 0 0 1 1.2,0.1 l 174.63,143 a 1.05,1.05 0 0 1 -0.53,1.86 L 317.3,473.27 Z M 677.67,263.86 322.17,470.54 849.84,404.82 Z"
           style="fill:#1dadb8"
           id="path45"
           inkscape:connector-curvature="0" />
      </g>
      <g
         id="triangle36-14"
         data-name="triangle36">
        <path
           d="m 852.42,406.62 a 1.07,1.07 0 0 1 -0.68,-0.24 l -174.63,-143 a 1.06,1.06 0 0 1 -0.34,-1.14 1,1 0 0 1 0.94,-0.73 l 109.6,-6.67 a 1,1 0 0 1 1,0.63 l 64.91,149.38 a 1,1 0 0 1 0.26,0.68 1,1 0 0 1 -1.07,1.07 z M 680.52,263.47 849.7,402 786.7,257 Z"
           style="fill:#1dadb8"
           id="path48"
           inkscape:connector-curvature="0" />
      </g>
      <g
         id="triangle36-15"
         data-name="triangle36">
        <path
           d="m 312.58,228.94 a 1.1,1.1 0 0 1 -0.57,-0.16 1.06,1.06 0 0 1 -0.41,-1.29 L 363,99.22 a 1.06,1.06 0 0 1 0.91,-0.66 1,1 0 0 1 1,0.54 l 24.59,44 a 1.06,1.06 0 0 1 -0.14,1.22 l -76,84.26 a 1,1 0 0 1 -0.78,0.36 z m 51.58,-126.89 -48.41,120.74 71.56,-79.31 z"
           style="fill:#1dadb8"
           id="path51"
           inkscape:connector-curvature="0" />
      </g>
      <g
         id="triangle36-16"
         data-name="triangle36">
        <path
           d="m 388.61,144.68 h -0.16 a 1.05,1.05 0 0 1 -0.77,-0.52 l -24.59,-44 a 1,1 0 0 1 0.67,-1.54 l 91.88,-22.66 a 1.06,1.06 0 0 1 1.17,0.51 1,1 0 0 1 -0.18,1.26 l -67.29,66.67 a 1.12,1.12 0 0 1 -0.73,0.28 z m -23,-44.38 23.24,41.6 63.6,-63 z"
           style="fill:#1dadb8"
           id="path54"
           inkscape:connector-curvature="0" />
      </g>
      <g
         id="triangle36-17"
         data-name="triangle36">
        <path
           d="m 364,100.67 a 1.05,1.05 0 0 1 -1,-0.61 1,1 0 0 1 0.32,-1.29 L 471.77,18.22 a 1,1 0 0 1 1.22,0 1.05,1.05 0 0 1 0.42,1.16 L 456.9,77.24 a 1,1 0 0 1 -0.76,0.74 l -91.88,22.65 A 1,1 0 0 1 364,100.67 Z M 470.53,21.76 368.84,97.34 455,76.08 Z"
           style="fill:#1dadb8"
           id="path57"
           inkscape:connector-curvature="0" />
      </g>
      <g
         id="triangle36-18"
         data-name="triangle36">
        <path
           d="m 623.62,102 a 1.17,1.17 0 0 1 -0.51,-0.13 L 471.89,20 a 1,1 0 0 1 -0.55,-0.94 1.08,1.08 0 0 1 0.58,-0.93 l 144.69,-73.27 a 1,1 0 0 1 1,0 1.06,1.06 0 0 1 0.52,0.86 l 6.53,155.1 a 1.06,1.06 0 0 1 -0.5,0.93 1.11,1.11 0 0 1 -0.54,0.25 z M 474.67,19.1 622.48,99.1 616.1,-52.52 Z"
           style="fill:#1dadb8"
           id="path60"
           inkscape:connector-curvature="0" />
      </g>
      <g
         id="triangle36-19"
         data-name="triangle36">
        <path
           d="m 472.41,20.12 a 1.1,1.1 0 0 1 -0.65,-0.21 1.07,1.07 0 0 1 -0.4,-1 l 17.05,-90.16 a 1,1 0 0 1 1.17,-0.85 l 127.64,16.85 a 1.06,1.06 0 0 1 0.9,0.87 1.05,1.05 0 0 1 -0.56,1.12 L 472.87,20 a 1.07,1.07 0 0 1 -0.46,0.12 z m 17.88,-90 -16.46,87.04 139.74,-70.76 z"
           style="fill:#1dadb8"
           id="path63"
           inkscape:connector-curvature="0" />
      </g>
      <g
         id="triangle36-20"
         data-name="triangle36">
        <path
           d="m 623.62,102 a 1.08,1.08 0 0 1 -0.7,-0.26 1,1 0 0 1 -0.36,-0.76 L 616,-54.16 a 1.06,1.06 0 0 1 0.65,-1 1.06,1.06 0 0 1 1.18,0.27 L 747,87 a 1.06,1.06 0 0 1 0.21,1.09 1,1 0 0 1 -0.88,0.67 L 623.72,101.94 Z M 618.26,-51.34 624.62,99.72 744,86.92 Z"
           style="fill:#1dadb8"
           id="path66"
           inkscape:connector-curvature="0" />
      </g>
      <g
         id="triangle36-21"
         data-name="triangle36">
        <path
           d="m 746.21,88.8 a 1,1 0 0 1 -0.79,-0.34 L 616.3,-53.49 a 1.08,1.08 0 0 1 -0.27,-0.78 1.05,1.05 0 0 1 0.38,-0.74 l 203.14,-169.74 a 1.05,1.05 0 0 1 1.24,-0.09 1.07,1.07 0 0 1 0.47,1.14 L 747.23,88 a 1.06,1.06 0 0 1 -0.77,0.77 1,1 0 0 1 -0.25,0.03 z M 618.6,-54.1 745.6,85.57 818.47,-221.1 Z"
           style="fill:#1dadb8"
           id="path69"
           inkscape:connector-curvature="0" />
      </g>
      <g
         id="triangle36-22"
         data-name="triangle36">
        <path
           d="m 853.65,706.15 a 0.84,0.84 0 0 1 -0.43,-0.09 L 316.75,473.19 a 1,1 0 0 1 -0.62,-1.11 1.06,1.06 0 0 1 0.91,-0.9 l 535.24,-66.66 a 1,1 0 0 1 0.82,0.25 1,1 0 0 1 0.36,0.79 l 1.24,299.54 a 1.05,1.05 0 0 1 -1.05,1 z M 321.13,472.8 852.58,703.49 851.36,406.76 Z"
           style="fill:#1dadb8"
           id="path72"
           inkscape:connector-curvature="0" />
      </g>
      <g
         id="triangle36-23"
         data-name="triangle36">
        <path
           d="m 317.18,473.28 h -0.24 l -32.52,-7.51 a 1,1 0 0 1 -0.74,-0.61 L 235.36,352.41 a 1.07,1.07 0 0 1 0.47,-1.35 1.06,1.06 0 0 1 1.38,0.34 l 80.84,120.24 a 1.05,1.05 0 0 1 -0.87,1.64 z m -31.77,-9.46 29.4,6.78 -73.08,-108.69 z"
           style="fill:#1dadb8"
           id="path75"
           inkscape:connector-curvature="0" />
      </g>
      <g
         id="triangle36-24"
         data-name="triangle36">
        <path
           d="m 746.21,88.8 a 1,1 0 0 1 -0.82,-0.37 1.06,1.06 0 0 1 -0.21,-0.92 l 74,-311.7 a 1.06,1.06 0 0 1 0.82,-0.81 1,1 0 0 1 1.05,0.4 l 224.7,297.33 a 1.07,1.07 0 0 1 0.11,1.09 1.06,1.06 0 0 1 -0.9,0.6 L 746.25,88.8 Z m 74.53,-310.32 -73.19,308.15 295.33,-14.2 z"
           style="fill:#1dadb8"
           id="path78"
           inkscape:connector-curvature="0" />
      </g>
      <g
         id="triangle36-25"
         data-name="triangle36">
        <path
           d="m 787.39,257 a 1.13,1.13 0 0 1 -0.48,-0.11 1.07,1.07 0 0 1 -0.56,-0.7 L 745.18,88 a 1,1 0 0 1 0.34,-1 1.06,1.06 0 0 1 1.09,-0.17 l 214.13,91.28 a 1.06,1.06 0 0 1 0,1.94 l -173,76.88 A 1,1 0 0 1 787.39,257 Z M 747.73,89.55 788.1,254.44 957.69,179.06 Z"
           style="fill:#1dadb8"
           id="path81"
           inkscape:connector-curvature="0" />
      </g>
      <g
         id="triangle36-26"
         data-name="triangle36">
        <path
           d="M 960.34,180.09 A 1,1 0 0 1 959.92,180 L 745.79,88.72 a 1.05,1.05 0 0 1 0.36,-2 l 298.73,-14.36 a 1,1 0 0 1 1,0.57 1.05,1.05 0 0 1 -0.11,1.14 l -84.6,105.64 a 1,1 0 0 1 -0.83,0.38 z M 750.84,88.58 960,177.75 1042.63,74.55 Z"
           style="fill:#1dadb8"
           id="path84"
           inkscape:connector-curvature="0" />
      </g>
    </g>
    <g
       style="opacity:0.67000002"
       id="g182">
      <g
         id="triangle36-27"
         data-name="triangle36"
         style="opacity:0.3">
        <path
           d="m 815.5,977.2 a 1,1 0 0 1 -0.79,-0.34 L 752.19,907.8 a 1.05,1.05 0 0 1 0.68,-1.75 l 74.76,-7.74 a 1.06,1.06 0 0 1 0.87,0.33 1,1 0 0 1 0.28,0.89 l -12.25,76.79 a 1.06,1.06 0 0 1 -0.74,0.84 1,1 0 0 1 -0.29,0.04 z m -60.35,-69.27 59.64,65.88 11.69,-73.26 z"
           style="fill:#1dadb8"
           id="path89"
           inkscape:connector-curvature="0" />
      </g>
      <g
         id="triangle36-28"
         data-name="triangle36"
         style="opacity:0.3">
        <path
           d="m 815.5,977.2 a 0.9,0.9 0 0 1 -0.42,-0.08 L 673,917.7 a 1.06,1.06 0 0 1 -0.64,-1.11 1.07,1.07 0 0 1 0.92,-0.91 l 79.55,-9.63 a 1,1 0 0 1 0.91,0.34 l 62.51,69.05 a 1.07,1.07 0 0 1 0.08,1.32 1,1 0 0 1 -0.83,0.44 z m -138,-59.9 134,56.05 -59,-65.14 z"
           style="fill:#1dadb8"
           id="path92"
           inkscape:connector-curvature="0" />
      </g>
      <g
         id="triangle36-29"
         data-name="triangle36"
         style="opacity:0.3">
        <path
           d="m 673.44,917.79 a 1,1 0 0 1 -0.47,-0.11 L 557.36,861.52 a 1.0611433,1.0611433 0 0 1 0.71,-2 l 195.15,46.52 a 1.05,1.05 0 0 1 -0.12,2.07 l -79.55,9.64 z m -106.5,-54 106.67,51.82 73.4,-8.89 z"
           style="fill:#1dadb8"
           id="path95"
           inkscape:connector-curvature="0" />
      </g>
      <g
         id="triangle36-30"
         data-name="triangle36"
         style="opacity:0.3">
        <path
           d="m 753,908.15 a 1.15,1.15 0 0 1 -0.26,0 L 557.58,861.6 a 1,1 0 0 1 -0.79,-0.82 L 512,635.32 a 1.06,1.06 0 0 1 1.83,-0.9 l 239.94,272 a 1,1 0 0 1 0.12,1.24 1.06,1.06 0 0 1 -0.89,0.49 z M 558.73,859.71 750,905.3 514.83,638.74 Z"
           style="fill:#1dadb8"
           id="path98"
           inkscape:connector-curvature="0" />
      </g>
      <g
         id="triangle36-31"
         data-name="triangle36"
         style="opacity:0.3">
        <path
           d="m 476.3,866.54 a 1.11,1.11 0 0 1 -0.79,-0.35 1.07,1.07 0 0 1 -0.26,-0.87 L 512,635 a 1,1 0 0 1 1,-0.89 1.13,1.13 0 0 1 1,0.85 l 44.8,225.46 a 1.06,1.06 0 0 1 -1,1.26 l -81.53,4.9 z m 36.84,-225.45 -35.6,223.26 79,-4.75 z"
           style="fill:#1dadb8"
           id="path101"
           inkscape:connector-curvature="0" />
      </g>
      <g
         id="triangle36-32"
         data-name="triangle36"
         style="opacity:0.3">
        <path
           d="m 827.74,900.41 a 1,1 0 0 1 -1,-0.72 L 694.65,493.39 a 1.06,1.06 0 0 1 1.69,-1.13 l 430.55,367.31 a 1,1 0 0 1 -0.55,1.84 l -298.47,39 z M 697.81,496.29 828.47,898.2 1123.72,859.63 Z"
           style="fill:#1dadb8"
           id="path104"
           inkscape:connector-curvature="0" />
      </g>
      <g
         id="triangle36-33"
         data-name="triangle36"
         style="opacity:0.3">
        <path
           d="m 753,908.15 a 1.06,1.06 0 0 1 -1.05,-0.91 l -57.32,-414 a 1.06,1.06 0 0 1 2,-0.47 L 828.74,899 a 1.05,1.05 0 0 1 -0.12,0.9 1.07,1.07 0 0 1 -0.78,0.48 l -74.76,7.73 z m -54.67,-403.45 55.55,401.24 72.45,-7.49 z"
           style="fill:#1dadb8"
           id="path107"
           inkscape:connector-curvature="0" />
      </g>
      <g
         id="triangle36-34"
         data-name="triangle36"
         style="opacity:0.3">
        <path
           d="m 753,908.15 a 1.07,1.07 0 0 1 -0.81,-0.36 l -239.94,-272 a 1.06,1.06 0 0 1 0.14,-1.53 L 695,492.23 a 1.08,1.08 0 0 1 1,-0.15 1.07,1.07 0 0 1 0.65,0.84 L 754,906.63 a 1.14,1.14 0 0 1 0.1,0.45 1,1 0 0 1 -1.07,1.07 z M 514.56,635.26 751.45,903.77 694.86,495 Z"
           style="fill:#1dadb8"
           id="path110"
           inkscape:connector-curvature="0" />
      </g>
      <g
         id="triangle36-35"
         data-name="triangle36"
         style="opacity:0.3">
        <path
           d="m 695.67,494.12 v 0 l -254.58,-9 a 1.05,1.05 0 0 1 -0.54,-1.93 l 196.7,-128.31 a 1.05,1.05 0 0 1 0.88,-0.13 1.14,1.14 0 0 1 0.67,0.6 l 57.83,137.3 a 1,1 0 0 1 -0.11,1 1.07,1.07 0 0 1 -0.85,0.47 z M 444.44,483.12 694,492 637.3,357.38 Z"
           style="fill:#1dadb8"
           id="path113"
           inkscape:connector-curvature="0" />
      </g>
      <g
         id="triangle36-36"
         data-name="triangle36"
         style="opacity:0.3">
        <path
           d="m 513,636.17 a 1.07,1.07 0 0 1 -0.25,0 1.08,1.08 0 0 1 -0.71,-0.57 l -72,-151 a 1.05,1.05 0 0 1 0.07,-1 1,1 0 0 1 0.92,-0.47 l 254.57,9 a 1,1 0 0 1 0.61,1.88 L 513.68,636 a 1.15,1.15 0 0 1 -0.68,0.17 z m -70.26,-151 70.64,148.27 L 692.71,494 Z"
           style="fill:#1dadb8"
           id="path116"
           inkscape:connector-curvature="0" />
      </g>
      <g
         id="triangle36-37"
         data-name="triangle36"
         style="opacity:0.3">
        <path
           d="m 1126.27,861.42 v 0 a 1.07,1.07 0 0 1 -0.7,-0.25 L 695,493.86 a 1.06,1.06 0 0 1 -0.31,-1.16 L 799.15,204.85 a 1.06,1.06 0 0 1 0.93,-0.69 1.05,1.05 0 0 1 1,0.58 L 1127,859.64 a 1,1 0 0 1 0.29,0.72 1,1 0 0 1 -1.02,1.06 z M 696.89,492.73 1123,856.21 800.29,207.88 Z"
           style="fill:#1dadb8"
           id="path119"
           inkscape:connector-curvature="0" />
      </g>
      <g
         id="triangle36-38"
         data-name="triangle36"
         style="opacity:0.3">
        <path
           d="m 695.67,494.12 a 1.07,1.07 0 0 1 -1,-0.65 l -57.83,-137.3 a 1,1 0 0 1 0.26,-1.18 L 799.43,204.44 a 1.07,1.07 0 0 1 1.3,-0.11 1.05,1.05 0 0 1 0.4,1.24 L 696.64,493.42 a 1,1 0 0 1 -1,0.7 z M 639.08,356 695.58,490.14 797.67,209 Z"
           style="fill:#1dadb8"
           id="path122"
           inkscape:connector-curvature="0" />
      </g>
      <g
         id="triangle36-39"
         data-name="triangle36"
         style="opacity:0.3">
        <path
           d="m 637.84,356.82 a 1.11,1.11 0 0 1 -0.67,-0.23 1.05,1.05 0 0 1 -0.26,-1.35 L 771.49,119 a 1.06,1.06 0 0 1 1.92,0.2 l 27.74,85.71 A 1.05,1.05 0 0 1 800.86,206 L 638.54,356.53 a 1.07,1.07 0 0 1 -0.7,0.29 z M 772.14,122.1 642.14,350.33 798.93,204.9 Z"
           style="fill:#1dadb8"
           id="path125"
           inkscape:connector-curvature="0" />
      </g>
      <g
         id="triangle36-40"
         data-name="triangle36"
         style="opacity:0.3">
        <path
           d="m 815.5,977.2 h -0.06 L 628.1,969.05 a 1.07,1.07 0 0 1 -0.92,-0.64 1,1 0 0 1 0.18,-1.11 L 672.64,916 a 1,1 0 0 1 1.19,-0.27 l 142.06,59.42 a 1.0188351,1.0188351 0 0 1 -0.39,2 z M 630.4,967 809.63,974.8 673.72,918 Z"
           style="fill:#1dadb8"
           id="path128"
           inkscape:connector-curvature="0" />
      </g>
      <g
         id="triangle36-41"
         data-name="triangle36"
         style="opacity:0.3">
        <path
           d="m 628.16,969.05 h -0.09 a 1.07,1.07 0 0 1 -0.8,-0.48 L 556.94,861.15 a 1.05,1.05 0 0 1 1.34,-1.52 l 115.61,56.15 a 1.06,1.06 0 0 1 0.33,1.65 l -45.28,51.26 a 1,1 0 0 1 -0.78,0.36 z m -67.37,-105.86 67.49,103.07 43.44,-49.19 z"
           style="fill:#1dadb8"
           id="path131"
           inkscape:connector-curvature="0" />
      </g>
      <g
         id="triangle36-42"
         data-name="triangle36"
         style="opacity:0.3">
        <path
           d="m 628.16,969.05 a 1.08,1.08 0 0 1 -0.6,-0.18 L 475.7,866.36 a 1.06,1.06 0 0 1 0.53,-1.93 l 81.53,-4.91 A 1.09,1.09 0 0 1 558.7,860 L 629,967.42 a 1,1 0 0 1 -0.14,1.33 1,1 0 0 1 -0.7,0.3 z M 479.46,866.35 624.4,964.19 557.28,861.67 Z"
           style="fill:#1dadb8"
           id="path134"
           inkscape:connector-curvature="0" />
      </g>
      <g
         id="triangle36-43"
         data-name="triangle36"
         style="opacity:0.3">
        <path
           d="m 476.3,866.54 a 1,1 0 0 1 -0.73,-0.3 L 316.7,714 a 1,1 0 0 1 -0.3,-1 1.06,1.06 0 0 1 0.64,-0.78 l 195.6,-78.11 a 1.08,1.08 0 0 1 1.05,0.16 1,1 0 0 1 0.38,1 l -36.73,230.38 a 1.06,1.06 0 0 1 -0.71,0.83 1,1 0 0 1 -0.33,0.06 z M 319.3,713.59 475.57,863.33 511.7,636.78 Z"
           style="fill:#1dadb8"
           id="path137"
           inkscape:connector-curvature="0" />
      </g>
      <g
         id="triangle36-44"
         data-name="triangle36"
         style="opacity:0.3">
        <path
           d="m 353.21,885.27 a 1.07,1.07 0 0 1 -1,-0.84 l -35.77,-171 a 1.05,1.05 0 0 1 1.76,-1 L 477,864.72 a 1,1 0 0 1 -0.57,1.8 L 353.37,885.26 Z M 319.21,716.34 354,883 474,864.74 Z"
           style="fill:#1dadb8"
           id="path140"
           inkscape:connector-curvature="0" />
      </g>
      <g
         id="triangle36-45"
         data-name="triangle36"
         style="opacity:0.3">
        <path
           d="m 317.44,714.28 a 1.06,1.06 0 0 1 -0.94,-1.56 L 440.15,483.6 a 1.11,1.11 0 0 1 1,-0.56 1.08,1.08 0 0 1 0.93,0.61 l 72,151 a 1,1 0 0 1 0,0.84 1.07,1.07 0 0 1 -0.59,0.59 L 317.82,714.2 a 1.23,1.23 0 0 1 -0.38,0.08 z M 441,486.43 319.74,711.17 511.59,634.55 Z"
           style="fill:#1dadb8"
           id="path143"
           inkscape:connector-curvature="0" />
      </g>
      <g
         id="triangle36-46"
         data-name="triangle36"
         style="opacity:0.3">
        <path
           d="m 321.21,895.28 a 1.11,1.11 0 0 1 -0.63,-0.19 1.08,1.08 0 0 1 -0.43,-0.84 l -3.77,-181 a 1.05,1.05 0 0 1 2.08,-0.23 l 35.78,171 a 1.05,1.05 0 0 1 -0.72,1.22 l -32,10 a 1.15,1.15 0 0 1 -0.31,0.04 z m -2.49,-170.75 3.5,168.27 29.78,-9.31 z"
           style="fill:#1dadb8"
           id="path146"
           inkscape:connector-curvature="0" />
      </g>
      <g
         id="triangle36-47"
         data-name="triangle36"
         style="opacity:0.3">
        <path
           d="m 321.21,895.28 a 1.08,1.08 0 0 1 -0.75,-0.3 L 216.15,792.84 a 1,1 0 0 1 -0.32,-0.81 1.07,1.07 0 0 1 0.4,-0.77 l 100.55,-78.87 a 1.07,1.07 0 0 1 1.1,-0.12 1.05,1.05 0 0 1 0.6,0.93 l 3.77,180.68 a 0.93,0.93 0 0 1 0.06,0.34 1,1 0 0 1 -1.07,1.06 z m -102.73,-103.1 101.61,99.49 -3.67,-176.32 z"
           style="fill:#1dadb8"
           id="path149"
           inkscape:connector-curvature="0" />
      </g>
      <g
         id="triangle36-48"
         data-name="triangle36"
         style="opacity:0.3">
        <path
           d="m 317.44,714.28 a 1.08,1.08 0 0 1 -0.55,-0.15 L 8.23,530.43 a 1.08,1.08 0 0 1 -0.49,-1.14 1.06,1.06 0 0 1 0.92,-0.82 L 441,483.05 a 1.05,1.05 0 0 1 1,1.55 L 318.36,713.72 a 1.09,1.09 0 0 1 -0.65,0.52 1.26,1.26 0 0 1 -0.27,0.04 z M 12,530.24 317,711.75 439.2,485.35 Z"
           style="fill:#1dadb8"
           id="path152"
           inkscape:connector-curvature="0" />
      </g>
      <g
         id="triangle36-49"
         data-name="triangle36"
         style="opacity:0.3">
        <path
           d="m 216.9,793.14 a 1,1 0 0 1 -0.84,-0.39 L 8,530.18 a 1,1 0 0 1 0,-1.35 1.06,1.06 0 0 1 1.33,-0.22 L 318,712.32 a 1,1 0 0 1 0.51,0.83 1.06,1.06 0 0 1 -0.4,0.9 l -100.57,78.87 a 1.06,1.06 0 0 1 -0.64,0.22 z M 13.16,533.36 l 203.9,257.25 98.51,-77.27 z"
           style="fill:#1dadb8"
           id="path155"
           inkscape:connector-curvature="0" />
      </g>
      <g
         id="triangle36-50"
         data-name="triangle36"
         style="opacity:0.3">
        <path
           d="M 8.78,530.57 A 0.94,0.94 0 0 1 8.38,530.5 1,1 0 0 1 7.74,529.32 L 93.37,77.57 a 1.05,1.05 0 0 1 1.2,-0.85 l 193.93,30.41 a 1.05,1.05 0 0 1 0.72,1.62 L 9.65,530.1 a 1,1 0 0 1 -0.87,0.47 z M 95.25,79 10.78,524.59 286.55,109 Z"
           style="fill:#1dadb8"
           id="path158"
           inkscape:connector-curvature="0" />
      </g>
      <g
         id="triangle36-51"
         data-name="triangle36"
         style="opacity:0.3">
        <path
           d="m 8.78,530.57 a 1,1 0 0 1 -0.91,-0.5 1.07,1.07 0 0 1 0,-1.13 L 287.46,107.59 a 1.07,1.07 0 0 1 1,-0.47 1,1 0 0 1 0.87,0.65 L 442.05,483.7 a 1,1 0 0 1 -0.07,0.94 1.08,1.08 0 0 1 -0.79,0.51 L 8.88,530.57 Z M 288.11,110.42 10.89,528.24 l 428.68,-45 z"
           style="fill:#1dadb8"
           id="path161"
           inkscape:connector-curvature="0" />
      </g>
      <g
         id="triangle36-52"
         data-name="triangle36"
         style="opacity:0.3">
        <path
           d="M 288.35,109.22 A 1.05,1.05 0 0 1 287.69,109 L 96.22,-41.3 A 1.06,1.06 0 0 1 95.9,-42.53 1.06,1.06 0 0 1 97,-43.18 L 358.14,-12 a 1.06,1.06 0 0 1 0.82,0.58 1,1 0 0 1 0,1 L 289.25,108.7 a 1.06,1.06 0 0 1 -0.72,0.5 z M 100.48,-40.64 288,106.59 356.29,-10.06 Z"
           style="fill:#1dadb8"
           id="path164"
           inkscape:connector-curvature="0" />
      </g>
      <g
         id="triangle36-53"
         data-name="triangle36"
         style="opacity:0.3">
        <path
           d="m 288.35,109.22 h -0.17 L 94.24,78.8 a 1,1 0 0 1 -0.89,-1.06 l 2.46,-119.89 a 1.06,1.06 0 0 1 0.61,-0.93 1,1 0 0 1 1.1,0.12 L 288.81,107.2 a 1,1 0 0 1 0.63,1 1,1 0 0 1 -1.06,1.06 z M 95.48,76.87 284.48,106.5 97.88,-40 Z"
           style="fill:#1dadb8"
           id="path167"
           inkscape:connector-curvature="0" />
      </g>
      <g
         id="triangle36-54"
         data-name="triangle36"
         style="opacity:0.3">
        <path
           d="m 461.63,170 a 1.13,1.13 0 0 1 -0.36,-0.06 L 288,109.16 a 1,1 0 0 1 -0.56,-1.52 L 357.11,-11.45 A 1.11,1.11 0 0 1 358,-12 a 1,1 0 0 1 0.91,0.53 L 462.54,168.41 A 1.07,1.07 0 0 1 461.63,170 Z M 289.89,107.6 459.29,167 358,-8.82 Z"
           style="fill:#1dadb8"
           id="path170"
           inkscape:connector-curvature="0" />
      </g>
      <g
         id="triangle36-55"
         data-name="triangle36"
         style="opacity:0.3">
        <path
           d="m 637.84,356.82 a 1,1 0 0 1 -0.78,-0.34 L 460.85,169.66 a 1.08,1.08 0 0 1 -0.23,-1.06 1.06,1.06 0 0 1 0.84,-0.7 l 310.78,-49.44 a 1.06,1.06 0 0 1 1.08,1.57 L 638.74,356.28 a 1.07,1.07 0 0 1 -0.79,0.53 z M 463.76,169.67 637.61,354 770.4,120.89 Z"
           style="fill:#1dadb8"
           id="path173"
           inkscape:connector-curvature="0" />
      </g>
      <g
         id="triangle36-56"
         data-name="triangle36"
         style="opacity:0.3">
        <path
           d="M 441.09,485.15 A 1,1 0 0 1 440,484 l 20.55,-315.16 a 1.06,1.06 0 0 1 1.82,-0.65 L 638.59,355 a 1,1 0 0 1 0.28,0.85 1.05,1.05 0 0 1 -0.47,0.75 L 441.65,485 a 1,1 0 0 1 -0.56,0.15 z m 21.43,-313.73 -20.25,310.65 193.92,-126.5 z"
           style="fill:#1dadb8"
           id="path176"
           inkscape:connector-curvature="0" />
      </g>
      <g
         id="triangle36-57"
         data-name="triangle36"
         style="opacity:0.3">
        <path
           d="m 441.09,485.15 a 1,1 0 0 1 -1,-0.66 L 287.36,108.56 a 1.06,1.06 0 0 1 1.33,-1.39 L 462,168 a 1,1 0 0 1 0.7,1.06 l -20.57,315.11 a 1.05,1.05 0 0 1 -0.88,1 z m -150.9,-375.21 150.13,369.5 20.2,-309.77 z"
           style="fill:#1dadb8"
           id="path179"
           inkscape:connector-curvature="0" />
      </g>
    </g>
    <rect
       x="112.87"
       y="196.72"
       width="903.95001"
       height="502.17999"
       transform="rotate(-90,564.84,447.81)"
       style="fill:none"
       id="rect184" />
  </g>
  <g
     id="Слой_2"
     data-name="Слой 2"
     transform="translate(0,-190.29921)">
    <g
       clip-path="url(#clip-path)"
       id="g189">
      <rect
         y="2"
         width="768"
         height="984"
         style="fill:none"
         id="rect187"
         x="0" />
    </g>
  </g>
</svg>
