<?xml version="1.0" standalone="no"?>
<!DOCTYPE svg PUBLIC "-//W3C//DTD SVG 20010904//EN"
 "http://www.w3.org/TR/2001/REC-SVG-20010904/DTD/svg10.dtd">
<svg version="1.0" xmlns="http://www.w3.org/2000/svg"
 width="700.000000pt" height="700.000000pt" viewBox="0 0 700.000000 700.000000"
 preserveAspectRatio="xMidYMid meet">
<metadata>
Created by potrace 1.11, written by Peter Selinger 2001-2013
</metadata>
<g transform="translate(0.000000,700.000000) scale(0.100000,-0.100000)"
fill="#000000" stroke="none">
<path d="M2333 5836 l-1161 -1163 1081 -1082 1081 -1081 -22 -20 c-12 -11 -25
-20 -29 -20 -4 0 -492 484 -1084 1076 l-1077 1076 -561 -561 -561 -561 1745
-1745 c960 -960 1749 -1745 1755 -1745 11 0 2320 2306 2320 2317 0 3 -486 492
-1080 1086 l-1080 1080 26 24 25 23 1080 -1080 c594 -594 1082 -1080 1085
-1080 2 0 256 252 564 560 l560 560 -1750 1750 c-962 962 -1751 1750 -1753
1749 -1 0 -525 -524 -1164 -1163z"/>
</g>
</svg>
